<?xml version="1.0" encoding="UTF-8"?>
<svg width="36px" height="36px" viewBox="0 0 36 36" version="1.1" xmlns="http://www.w3.org/2000/svg" xmlns:xlink="http://www.w3.org/1999/xlink">
    <!-- Generator: Sketch 52.3 (67297) - http://www.bohemiancoding.com/sketch -->
    <title>dialog_close</title>
    <desc>Created with Sketch.</desc>
    <g id="Page-1" stroke="none" stroke-width="1" fill="none" fill-rule="evenodd">
        <g id="民宿详情_预订须知" transform="translate(-643.000000, -640.000000)" fill="#D8D8D8">
            <g id="dialog_close" transform="translate(55.000000, 624.000000)">
                <g transform="translate(588.000000, 16.000000)">
                    <path d="M15.1715729,18 L10.9289322,22.2426407 C10.1478836,23.0236893 10.1478836,24.2900192 10.9289322,25.0710678 C11.7099808,25.8521164 12.9763107,25.8521164 13.7573593,25.0710678 L18,20.8284271 L22.2426407,25.0710678 C23.0236893,25.8521164 24.2900192,25.8521164 25.0710678,25.0710678 C25.8521164,24.2900192 25.8521164,23.0236893 25.0710678,22.2426407 L20.8284271,18 L25.0710678,13.7573593 C25.8521164,12.9763107 25.8521164,11.7099808 25.0710678,10.9289322 C24.2900192,10.1478836 23.0236893,10.1478836 22.2426407,10.9289322 L18,15.1715729 L13.7573593,10.9289322 C12.9763107,10.1478836 11.7099808,10.1478836 10.9289322,10.9289322 C10.1478836,11.7099808 10.1478836,12.9763107 10.9289322,13.7573593 L15.1715729,18 Z M18,36 C8.0588745,36 0,27.9411255 0,18 C0,8.0588745 8.0588745,0 18,0 C27.9411255,0 36,8.0588745 36,18 C36,27.9411255 27.9411255,36 18,36 Z"></path>
                </g>
            </g>
        </g>
    </g>
</svg>