<?xml version="1.0" encoding="UTF-8"?>
<svg width="160px" height="160px" viewBox="0 0 160 160" version="1.1" xmlns="http://www.w3.org/2000/svg" xmlns:xlink="http://www.w3.org/1999/xlink">
    <!-- Generator: Sketch 52.3 (67297) - http://www.bohemiancoding.com/sketch -->
    <title>空</title>
    <desc>Created with Sketch.</desc>
    <g id="Page-2" stroke="none" stroke-width="1" fill="none" fill-rule="evenodd">
        <g id="空" transform="translate(0.000000, 1.000000)">
            <rect id="Rectangle" fill="#000000" opacity="0" x="0" y="0" width="160" height="160"></rect>
            <path d="M129.953125,57.71875 L30.25,57.71875 L10,94.0625 L10,139.421875 L150.1875,139.421875 L150.1875,94.0625 L129.953125,57.71875 Z M97.90625,94.46875 C97.90625,104.296875 89.9375,112.265625 80.09375,112.265625 C70.25,112.265625 62.28125,104.296875 62.28125,94.46875 L18.359375,94.46875 L34.578125,63.53125 L125.59375,63.53125 L141.8125,94.46875 L97.90625,94.46875 Z M78.46875,20.46875 L84.578125,20.46875 L84.578125,42.4375 L78.46875,42.4375 L78.46875,20.46875 Z M37.0085938,31.3753125 L41.3284375,27.0554688 L56.8626563,42.5895313 L52.5426563,46.9095313 L37.0085938,31.3753125 Z M104.304219,42.5995313 L119.838281,27.0653125 L124.158281,31.3853125 L108.624219,46.919375 L104.304219,42.5995313 Z" id="Shape" fill="#DBDBDF" fill-rule="nonzero"></path>
        </g>
    </g>
</svg>