<?xml version="1.0" encoding="UTF-8"?>
<svg width="28px" height="28px" viewBox="0 0 28 28" version="1.1" xmlns="http://www.w3.org/2000/svg" xmlns:xlink="http://www.w3.org/1999/xlink">
    <!-- Generator: Sketch 52.3 (67297) - http://www.bohemiancoding.com/sketch -->
    <title>时间</title>
    <desc>Created with Sketch.</desc>
    <g id="Page-2" stroke="none" stroke-width="1" fill="none" fill-rule="evenodd">
        <g id="时间">
            <rect id="Rectangle" x="0" y="0" width="28" height="28"></rect>
            <path d="M14,14 L14,7 C14,6.44771525 13.5522847,6 13,6 C12.4477153,6 12,6.44771525 12,7 L12,15 C12,15.5522847 12.4477153,16 13,16 L21,16 C21.5522847,16 22,15.5522847 22,15 C22,14.4477153 21.5522847,14 21,14 L14,14 Z M14,26 C7.372583,26 2,20.627417 2,14 C2,7.372583 7.372583,2 14,2 C20.627417,2 26,7.372583 26,14 C26,20.627417 20.627417,26 14,26 Z" id="Combined-Shape" fill="#A2A2A2"></path>
        </g>
    </g>
</svg>