<?xml version="1.0" encoding="UTF-8"?>
<svg width="60px" height="64px" viewBox="0 0 60 64" version="1.1" xmlns="http://www.w3.org/2000/svg" xmlns:xlink="http://www.w3.org/1999/xlink">
    <!-- Generator: Sketch 52.3 (67297) - http://www.bohemiancoding.com/sketch -->
    <title>Combined Shape</title>
    <desc>Created with Sketch.</desc>
    <g id="-" stroke="none" stroke-width="1" fill="none" fill-rule="evenodd">
        <g id="景点详情滑动-copy" transform="translate(-345.000000, -269.000000)" fill="#CBCBCB" fill-rule="nonzero">
            <path d="M381.903017,296.92541 L374.556349,304.272078 L374.564499,304.280228 L371.736072,307.108655 L371.727922,307.100505 L351.646775,327.181652 C351.648919,327.18494 351.651067,327.188225 351.653221,327.191506 L348.794899,330.049827 C348.79246,330.046833 348.790022,330.043838 348.787587,330.04084 L348.414214,330.414214 C347.633165,331.195262 346.366835,331.195262 345.585786,330.414214 C344.804738,329.633165 344.804738,328.366835 345.585786,327.585786 L347.07459,326.096983 C347.02541,325.738351 347,325.372143 347,325 L347,277 C347,272.581722 350.581722,269 355,269 L395,269 C397.507529,269 399.745607,270.15366 401.212413,271.95916 L401.585786,271.585786 C402.366835,270.804738 403.633165,270.804738 404.414214,271.585786 C405.195262,272.366835 405.195262,273.633165 404.414214,274.414214 L402.92541,275.903017 C402.926066,275.907797 402.926717,275.912579 402.927364,275.917362 L399,279.844727 L399,279.828427 L390.92541,287.903017 C390.926066,287.907797 390.926717,287.912579 390.927364,287.917362 L381.917362,296.927364 C381.912579,296.926717 381.907797,296.926066 381.903017,296.92541 Z M377.95916,295.212413 C376.15366,293.745607 375,291.507529 375,289 C375,284.581722 378.581722,281 383,281 C385.507529,281 387.745607,282.15366 389.212413,283.95916 L398.353225,274.818348 C397.639532,273.723634 396.404273,273 395,273 L355,273 C352.790861,273 351,274.790861 351,277 L351,322.171573 L368.899495,304.272078 L365.627417,301 L351,315.627417 L351,309.970563 L362.79899,298.171573 C364.361087,296.609476 366.893747,296.609476 368.455844,298.171573 L371.727922,301.443651 L377.95916,295.212413 Z M380.818348,292.353225 L386.353225,286.818348 C385.639532,285.723634 384.404273,285 383,285 C380.790861,285 379,286.790861 379,289 C379,290.404273 379.723634,291.639532 380.818348,292.353225 Z M355.501581,329 L395,329 C397.209139,329 399,327.209139 399,325 L399,285.501581 L403,281.501581 L403,325 C403,329.418278 399.418278,333 395,333 L355,333 C353.96171,333 352.969618,332.802201 352.059351,332.44223 L355.501581,329 Z M377.392926,307.108655 L381.627417,311.343146 L386.79899,306.171573 C388.361087,304.609476 390.893747,304.609476 392.455844,306.171573 L399,312.715729 L399,318.372583 L389.627417,309 L381.627417,317 L374.564499,309.937082 L377.392926,307.108655 Z" id="Combined-Shape"></path>
        </g>
    </g>
</svg>