<?xml version="1.0" encoding="UTF-8"?>
<svg width="28px" height="28px" viewBox="0 0 28 28" version="1.1" xmlns="http://www.w3.org/2000/svg" xmlns:xlink="http://www.w3.org/1999/xlink">
    <!-- Generator: Sketch 52.3 (67297) - http://www.bohemiancoding.com/sketch -->
    <title>个人中心_我的奖品</title>
    <desc>Created with Sketch.</desc>
    <g id="Page-2" stroke="none" stroke-width="1" fill="none" fill-rule="evenodd">
        <g id="个人中心_我的奖品" fill="#71A3FF" fill-rule="nonzero">
            <path d="M13,10 L13,8 L15,8 L15,10 L26,10 L26,8 L20,8 L15,8 L8,8 L2,8 L2,10 L13,10 Z M15,12 L15,26 L24,26 L24,12 L15,12 Z M13,12 L4,12 L4,26 L13,26 L13,12 Z M8,6 L13,6 L13,5.5 C13,3.56700338 11.4329966,2 9.5,2 L8,2 C6.8954305,2 6,2.8954305 6,4 C6,5.1045695 6.8954305,6 8,6 Z M4.53512878,6 C4.19478857,5.41165327 4,4.72857429 4,4 C4,1.790861 5.790861,0 8,0 L9.5,0 C11.3601578,0 13.0046326,0.923448447 14,2.33692087 C14.9953674,0.923448447 16.6398422,0 18.5,0 L20,0 C22.209139,0 24,1.790861 24,4 C24,4.72857429 23.8052114,5.41165327 23.4648712,6 L26,6 C27.1045695,6 28,6.8954305 28,8 L28,10 C28,11.1045695 27.1045695,12 26,12 L26,26 C26,27.1045695 25.1045695,28 24,28 L4,28 C2.8954305,28 2,27.1045695 2,26 L2,12 C0.8954305,12 0,11.1045695 0,10 L0,8 C0,6.8954305 0.8954305,6 2,6 L4.53512878,6 Z M15,5.5 L15,6 L20,6 C21.1045695,6 22,5.1045695 22,4 C22,2.8954305 21.1045695,2 20,2 L18.5,2 C16.5670034,2 15,3.56700338 15,5.5 Z" id="Combined-Shape"></path>
        </g>
    </g>
</svg>