<?xml version="1.0" encoding="UTF-8"?>
<svg width="24px" height="24px" viewBox="0 0 24 24" version="1.1" xmlns="http://www.w3.org/2000/svg" xmlns:xlink="http://www.w3.org/1999/xlink">
    <!-- Generator: Sketch 52.3 (67297) - http://www.bohemiancoding.com/sketch -->
    <title>个人中心_通知</title>
    <desc>Created with Sketch.</desc>
    <g id="Page-2" stroke="none" stroke-width="1" fill="none" fill-rule="evenodd">
        <g id="个人中心_通知">
            <rect id="Rectangle" fill="#000000" opacity="0" x="0" y="0" width="24" height="24"></rect>
            <path d="M15,19.5 L15,20 C15,21.6568542 13.6568542,23 12,23 C10.3431458,23 9,21.6568542 9,20 L9,19.5 L5.76619038,19.5 C4.93776325,19.5 4.26619038,18.8284271 4.26619038,18 C4.26619038,17.7281341 4.34007713,17.4613795 4.47995099,17.2282564 L5.5,15.5281747 L5.5,10 C5.5,8.24380792 6.2004102,6.59741439 7.42257299,5.38511473 C8.02624993,4.78630961 8.74181903,4.31005417 9.5290586,3.98627032 C9.78444406,3.88123281 10.0766246,4.0031139 10.1816621,4.25849936 C10.2866996,4.51388481 10.1648185,4.80606536 9.90943309,4.91110287 C9.24362388,5.18494362 8.63797363,5.58804127 8.12680917,6.09508051 C7.09205585,7.12148313 6.5,8.51317749 6.5,10 L6.5,15.6666667 C6.5,15.7572886 6.47537108,15.8462068 6.42874646,15.9239145 L5.33744392,17.7427521 C5.2908193,17.8204598 5.26619038,17.909378 5.26619038,18 C5.26619038,18.2761424 5.490048,18.5 5.76619038,18.5 L18.522967,18.5 C18.5865768,18.5 18.6496022,18.4878624 18.7086624,18.4642383 C18.9650541,18.3616816 19.0897621,18.0706964 18.9872054,17.8143047 L17.5357617,14.1856953 L17.5,14 L17.5,10 C17.5,6.96243388 15.0375661,4.5 12,4.5 C11.7238576,4.5 11.5,4.27614237 11.5,4 L11.5,1.5 C11.5,1.22385763 11.7238576,1 12,1 C12.2761424,1 12.5,1.22385763 12.5,1.5 L12.5,3.51894482 C15.8562239,3.77425725 18.5,6.57838512 18.5,10 L18.5,13.9037088 L19.9156821,17.442914 C20.2233522,18.2120893 19.8492283,19.0850449 19.0800531,19.392715 C18.9028726,19.4635872 18.7137962,19.5 18.522967,19.5 L15,19.5 Z M14,19.5 L10,19.5 L10,20 C10,21.1045695 10.8954305,22 12,22 C13.1045695,22 14,21.1045695 14,20 L14,19.5 Z" id="Combined-Shape" fill="#71A3FF" fill-rule="nonzero"></path>
        </g>
    </g>
</svg>