<?xml version="1.0" encoding="UTF-8"?>
<svg width="24px" height="24px" viewBox="0 0 24 24" version="1.1" xmlns="http://www.w3.org/2000/svg" xmlns:xlink="http://www.w3.org/1999/xlink">
    <!-- Generator: Sketch 52.3 (67297) - http://www.bohemiancoding.com/sketch -->
    <title>个人中心_我的信息</title>
    <desc>Created with Sketch.</desc>
    <g id="Page-2" stroke="none" stroke-width="1" fill="none" fill-rule="evenodd">
        <g id="个人中心_我的信息">
            <rect id="Rectangle" x="0" y="0" width="24" height="24"></rect>
            <path d="M5,2 C4.44771525,2 4,2.44771525 4,3 L4,20 C4,20.5522847 4.44771525,21 5,21 L19,21 C19.5522847,21 20,20.5522847 20,20 L20,3 C20,2.44771525 19.5522847,2 19,2 L5,2 Z M5,1 L19,1 C20.1045695,1 21,1.8954305 21,3 L21,20 C21,21.1045695 20.1045695,22 19,22 L5,22 C3.8954305,22 3,21.1045695 3,20 L3,3 C3,1.8954305 3.8954305,1 5,1 Z M9.5,8.5 C8.3954305,8.5 7.5,7.6045695 7.5,6.5 C7.5,5.3954305 8.3954305,4.5 9.5,4.5 C10.6045695,4.5 11.5,5.3954305 11.5,6.5 C11.5,7.6045695 10.6045695,8.5 9.5,8.5 Z M9.5,7.5 C10.0522847,7.5 10.5,7.05228475 10.5,6.5 C10.5,5.94771525 10.0522847,5.5 9.5,5.5 C8.94771525,5.5 8.5,5.94771525 8.5,6.5 C8.5,7.05228475 8.94771525,7.5 9.5,7.5 Z M8,10 C7.44771525,10 7,10.4477153 7,11 L12,11 C12,10.4477153 11.5522847,10 11,10 L8,10 Z M8,9 L11,9 C12.1045695,9 13,9.8954305 13,11 C13,11.5522847 12.5522847,12 12,12 L7,12 C6.44771525,12 6,11.5522847 6,11 C6,9.8954305 6.8954305,9 8,9 Z M14.5,6 L17.5,6 C17.7761424,6 18,6.22385763 18,6.5 C18,6.77614237 17.7761424,7 17.5,7 L14.5,7 C14.2238576,7 14,6.77614237 14,6.5 C14,6.22385763 14.2238576,6 14.5,6 Z M14.5,9 L17.5,9 C17.7761424,9 18,9.22385763 18,9.5 C18,9.77614237 17.7761424,10 17.5,10 L14.5,10 C14.2238576,10 14,9.77614237 14,9.5 C14,9.22385763 14.2238576,9 14.5,9 Z M6.5,14 L17.5,14 C17.7761424,14 18,14.2238576 18,14.5 C18,14.7761424 17.7761424,15 17.5,15 L6.5,15 C6.22385763,15 6,14.7761424 6,14.5 C6,14.2238576 6.22385763,14 6.5,14 Z M6.5,17 L17.5,17 C17.7761424,17 18,17.2238576 18,17.5 C18,17.7761424 17.7761424,18 17.5,18 L6.5,18 C6.22385763,18 6,17.7761424 6,17.5 C6,17.2238576 6.22385763,17 6.5,17 Z" id="Combined-Shape" fill="#71A3FF" fill-rule="nonzero"></path>
        </g>
    </g>
</svg>