<?xml version="1.0" encoding="UTF-8"?>
<svg width="32px" height="32px" viewBox="0 0 32 32" version="1.1" xmlns="http://www.w3.org/2000/svg" xmlns:xlink="http://www.w3.org/1999/xlink">
    <!-- Generator: Sketch 52.3 (67297) - http://www.bohemiancoding.com/sketch -->
    <title>景点详情_评价</title>
    <desc>Created with Sketch.</desc>
    <g id="Page-2" stroke="none" stroke-width="1" fill="none" fill-rule="evenodd">
        <g id="景点详情_评价">
            <rect id="Rectangle" x="0" y="0" width="32" height="32"></rect>
            <path d="M21,16.4346701 C21.3612695,16.3868699 21.7137488,16.3131635 22.0532349,16.214623 C22.711276,16.0236177 23.3121358,15.7415802 23.8222651,15.3844897 C24.0484897,15.2261324 24.1035071,14.9143672 23.9451499,14.6881426 C23.7867926,14.4619179 23.4750274,14.4069005 23.2488027,14.5652578 C22.8307477,14.8578963 22.3296016,15.0931292 21.774477,15.2542616 C21.5245051,15.3268193 21.2655497,15.3838164 21,15.4245737 L21,14 C21,12.3431458 19.6568542,11 18,11 L11,11 L11,7 C11,5.8954305 11.8954305,5 13,5 L27,5 C28.1045695,5 29,5.8954305 29,7 L29,17 C29,18.1045695 28.1045695,19 27,19 L26,19 L24.353776,20.646425 C24.1585257,20.8416991 23.8419432,20.8417184 23.6466692,20.6464682 L22,19 L21,19 L21,16.4346701 Z M9,26 L7.35377595,27.646425 C7.15852572,27.8416991 6.84194323,27.8417184 6.64666917,27.6464682 L5,26 L4,26 C2.8954305,26 2,25.1045695 2,24 L2,14 C2,12.8954305 2.8954305,12 4,12 L18,12 C19.1045695,12 20,12.8954305 20,14 L20,24 C20,25.1045695 19.1045695,26 18,26 L9,26 Z M6.5,15 C6.22385763,15 6,15.2238576 6,15.5 L6,18.5 C6,18.7761424 6.22385763,19 6.5,19 C6.77614237,19 7,18.7761424 7,18.5 L7,15.5 C7,15.2238576 6.77614237,15 6.5,15 Z M15.5,15 C15.2238576,15 15,15.2238576 15,15.5 L15,18.5 C15,18.7761424 15.2238576,19 15.5,19 C15.7761424,19 16,18.7761424 16,18.5 L16,15.5 C16,15.2238576 15.7761424,15 15.5,15 Z M24.5,8 C24.2238576,8 24,8.22385763 24,8.5 L24,11.5 C24,11.7761424 24.2238576,12 24.5,12 C24.7761424,12 25,11.7761424 25,11.5 L25,8.5 C25,8.22385763 24.7761424,8 24.5,8 Z M7.17773492,22.3844897 C7.68786421,22.7415802 8.28872404,23.0236177 8.9467651,23.214623 C9.59368923,23.4024015 10.2877955,23.5 11,23.5 C11.7122045,23.5 12.4063108,23.4024015 13.0532349,23.214623 C13.711276,23.0236177 14.3121358,22.7415802 14.8222651,22.3844897 C15.0484897,22.2261324 15.1035071,21.9143672 14.9451499,21.6881426 C14.7867926,21.4619179 14.4750274,21.4069005 14.2488027,21.5652578 C13.8307477,21.8578963 13.3296016,22.0931292 12.774477,22.2542616 C12.2186462,22.415599 11.6183988,22.5 11,22.5 C10.3816012,22.5 9.78135381,22.415599 9.225523,22.2542616 C8.67039838,22.0931292 8.16925231,21.8578963 7.75119727,21.5652578 C7.52497262,21.4069005 7.21320739,21.4619179 7.05485013,21.6881426 C6.89649288,21.9143672 6.95151027,22.2261324 7.17773492,22.3844897 Z" id="Combined-Shape" fill="#8CABFC"></path>
        </g>
    </g>
</svg>