<?xml version="1.0" encoding="UTF-8"?>
<svg width="32px" height="32px" viewBox="0 0 32 32" version="1.1" xmlns="http://www.w3.org/2000/svg" xmlns:xlink="http://www.w3.org/1999/xlink">
    <!-- Generator: Sketch 52.3 (67297) - http://www.bohemiancoding.com/sketch -->
    <title>景点详情_简介</title>
    <desc>Created with Sketch.</desc>
    <g id="Page-2" stroke="none" stroke-width="1" fill="none" fill-rule="evenodd">
        <g id="景点详情_简介">
            <rect id="Rectangle" x="0" y="0" width="32" height="32"></rect>
            <path d="M8,2 L24,2 C26.209139,2 28,3.790861 28,6 L28,26 C28,28.209139 26.209139,30 24,30 L8,30 C5.790861,30 4,28.209139 4,26 L4,6 C4,3.790861 5.790861,2 8,2 Z M9,7 C8.44771525,7 8,7.44771525 8,8 L8,9 C8,9.55228475 8.44771525,10 9,10 L23,10 C23.5522847,10 24,9.55228475 24,9 L24,8 C24,7.44771525 23.5522847,7 23,7 L9,7 Z M9,14 C8.44771525,14 8,14.4477153 8,15 L8,16 C8,16.5522847 8.44771525,17 9,17 L23,17 C23.5522847,17 24,16.5522847 24,16 L24,15 C24,14.4477153 23.5522847,14 23,14 L9,14 Z M9,21 C8.44771525,21 8,21.4477153 8,22 L8,23 C8,23.5522847 8.44771525,24 9,24 L17,24 C17.5522847,24 18,23.5522847 18,23 L18,22 C18,21.4477153 17.5522847,21 17,21 L9,21 Z" id="Combined-Shape" fill="#7FA0FF" fill-rule="nonzero"></path>
        </g>
    </g>
</svg>