<?xml version="1.0" encoding="UTF-8"?>
<svg width="32px" height="32px" viewBox="0 0 32 32" version="1.1" xmlns="http://www.w3.org/2000/svg" xmlns:xlink="http://www.w3.org/1999/xlink">
    <!-- Generator: Sketch 52.3 (67297) - http://www.bohemiancoding.com/sketch -->
    <title>景点详情_语音导览</title>
    <desc>Created with Sketch.</desc>
    <g id="Page-2" stroke="none" stroke-width="1" fill="none" fill-rule="evenodd">
        <g id="景点详情_语音导览">
            <rect id="Rectangle" x="0" y="0" width="32" height="32"></rect>
            <path d="M27.3333333,16.6666667 C27.3333333,10.4074395 22.2592272,5.33333333 16,5.33333333 C9.74077284,5.33333333 4.66666667,10.4074395 4.66666667,16.6666667 L2,16.6666667 C2,8.93468017 8.2680135,2.66666667 16,2.66666667 C23.7319865,2.66666667 30,8.93468017 30,16.6666667 L27.3333333,16.6666667 Z M2,16.6666667 L4.66666667,16.6666667 L4.66666667,20.6666667 L2,20.6666667 L2,16.6666667 Z M30,20.6666667 L30,24.6666667 C30,26.5076158 28.5076158,28 26.6666667,28 C24.8257175,28 23.3333333,26.5076158 23.3333333,24.6666667 L23.3333333,20.6666667 C23.3333333,18.8257175 24.8257175,17.3333333 26.6666667,17.3333333 C26.8949772,17.3333333 27.1179267,17.3562868 27.3333333,17.4000121 L27.3333333,16.6666667 L30,16.6666667 L30,20.6666667 Z M5.33333333,17.3333333 C7.1742825,17.3333333 8.66666667,18.8257175 8.66666667,20.6666667 L8.66666667,24.6666667 C8.66666667,26.5076158 7.1742825,28 5.33333333,28 C3.49238417,28 2,26.5076158 2,24.6666667 L2,20.6666667 C2,18.8257175 3.49238417,17.3333333 5.33333333,17.3333333 Z" id="Combined-Shape" fill="#8CABFC" fill-rule="nonzero"></path>
        </g>
    </g>
</svg>