<?xml version="1.0" encoding="UTF-8"?>
<svg width="28px" height="28px" viewBox="0 0 28 28" version="1.1" xmlns="http://www.w3.org/2000/svg" xmlns:xlink="http://www.w3.org/1999/xlink">
    <!-- Generator: Sketch 52.3 (67297) - http://www.bohemiancoding.com/sketch -->
    <title>电话</title>
    <desc>Created with Sketch.</desc>
    <g id="Page-2" stroke="none" stroke-width="1" fill="none" fill-rule="evenodd">
        <g id="电话">
            <rect id="Rectangle" x="0" y="0" width="28" height="28"></rect>
            <path d="M20.2,27 C19.55,27 19.05,26.95 18.65,26.8 L18.6,26.8 C9.15,24.8 2.25,16.25 2.25,6.55 C2.25,3.5 4.75,1 7.8,1 L8,1 C10.75,1.1 13.1,3.35 13.3,6.05 C13.5,8.7 11.9,11.05 9.4,11.8 C9.2,11.85 9.1,12 9.05,12.1 C9,12.2 8.95,12.35 9.05,12.55 C10.2,15.25 12.1,17.5 14.55,19.15 C14.8,19.3 15.2,19.2 15.35,18.95 C16.3,17.1 18.2,16 20.25,16 C20.5,16 20.75,16 21,16.05 C23.45,16.4 25.45,18.4 25.7,20.9 C25.9,22.45 25.4,24.05 24.35,25.2 C23.3,26.35 21.8,27 20.2,27 Z" id="Shape" fill="#A2A2A2" fill-rule="nonzero"></path>
        </g>
    </g>
</svg>