<?xml version="1.0" encoding="UTF-8"?>
<svg width="42px" height="42px" viewBox="0 0 42 42" version="1.1" xmlns="http://www.w3.org/2000/svg" xmlns:xlink="http://www.w3.org/1999/xlink">
    <!-- Generator: Sketch 52.3 (67297) - http://www.bohemiancoding.com/sketch -->
    <title>地图模式</title>
    <desc>Created with Sketch.</desc>
    <g id="Page-2" stroke="none" stroke-width="1" fill="none" fill-rule="evenodd">
        <g id="地图模式">
            <rect id="Rectangle" x="0" y="0" width="42" height="42"></rect>
            <path d="M31,12 C31,15.953131 28.1832477,21.0609758 22.1866729,28.2431649 C20.7875255,29.918945 18.2124745,29.918945 16.8133271,28.2431649 C10.8167523,21.0609758 8,15.953131 8,12 C8,5.64872538 13.1487254,0.5 19.5,0.5 C25.8512746,0.5 31,5.64872538 31,12 Z M28,12 C28,7.30557963 24.1944204,3.5 19.5,3.5 C14.8055796,3.5 11,7.30557963 11,12 C11,15.0330778 13.5443848,19.6470166 19.1161896,26.3204521 C19.3160678,26.5598493 19.6839322,26.5598493 19.8838104,26.3204521 C25.4556152,19.6470166 28,15.0330778 28,12 Z M19.5,16 C17.290861,16 15.5,14.209139 15.5,12 C15.5,9.790861 17.290861,8 19.5,8 C21.709139,8 23.5,9.790861 23.5,12 C23.5,14.209139 21.709139,16 19.5,16 Z M19.5,14 C20.6045695,14 21.5,13.1045695 21.5,12 C21.5,10.8954305 20.6045695,10 19.5,10 C18.3954305,10 17.5,10.8954305 17.5,12 C17.5,13.1045695 18.3954305,14 19.5,14 Z M14.8320503,41.2480754 C14.2934608,41.6071351 13.5852927,41.5801963 13.0755376,41.1812575 L1.57553761,32.1812575 C1.2122584,31.896952 1,31.461304 1,31 L1,17 C1,16.1715729 1.67157288,15.5 2.5,15.5 C3.32842712,15.5 4,16.1715729 4,17 L4,30.2691632 L14.0703622,38.1503162 L26.6679497,29.7519246 C27.1808046,29.4100213 27.8506114,29.4166524 28.3565967,29.7686422 L37.5,36.1292706 L37.5,17.8027756 L33.6679497,15.2480754 C32.9786567,14.7885468 32.7923959,13.8572427 33.2519246,13.1679497 C33.7114532,12.4786567 34.6427573,12.2923959 35.3320503,12.7519246 L39.8320503,15.7519246 C40.2493483,16.0301232 40.5,16.4984702 40.5,17 L40.5,39 C40.5,40.2115352 39.1379588,40.9232225 38.1434033,40.2313578 L27.4820339,32.814753 L14.8320503,41.2480754 Z" id="Combined-Shape" fill="#6AA5FC" fill-rule="nonzero"></path>
        </g>
    </g>
</svg>