<?xml version="1.0" encoding="UTF-8"?>
<svg width="28px" height="28px" viewBox="0 0 28 28" version="1.1" xmlns="http://www.w3.org/2000/svg" xmlns:xlink="http://www.w3.org/1999/xlink">
    <!-- Generator: Sketch 52.3 (67297) - http://www.bohemiancoding.com/sketch -->
    <title>位置</title>
    <desc>Created with Sketch.</desc>
    <g id="Page-2" stroke="none" stroke-width="1" fill="none" fill-rule="evenodd">
        <g id="位置">
            <path d="M15.5352416,26.2818085 C14.7357289,27.2393972 13.2642711,27.2393972 12.4647584,26.2818085 C6.83880387,19.543517 4,14.5756103 4,11 C4,5.4771525 8.4771525,1 14,1 C19.5228475,1 24,5.4771525 24,11 C24,14.5756103 21.1611961,19.543517 15.5352416,26.2818085 Z M14,16 C16.7614237,16 19,13.7614237 19,11 C19,8.23857625 16.7614237,6 14,6 C11.2385763,6 9,8.23857625 9,11 C9,13.7614237 11.2385763,16 14,16 Z" id="Combined-Shape" fill="#A2A2A2" fill-rule="nonzero"></path>
            <rect id="Rectangle" x="0" y="0" width="28" height="28"></rect>
        </g>
    </g>
</svg>